<svg width="14" height="14" viewBox="0 0 14 14" fill="none" xmlns="http://www.w3.org/2000/svg">
<path fill-rule="evenodd" clip-rule="evenodd" d="M13.364 0.636017C12.9734 0.245514 12.3404 0.245514 11.9497 0.636017L7.00003 5.58578L2.0502 0.636017C1.6597 0.245514 1.02652 0.245514 0.636017 0.636017C0.245514 1.02652 0.245514 1.6597 0.636017 2.0502L5.58572 6.99997L0.636017 11.9497C0.245514 12.3402 0.245514 12.9734 0.636017 13.364C1.02664 13.7545 1.65982 13.7545 2.05032 13.364L7.00003 8.41428L11.9497 13.3639C12.3402 13.7545 12.9734 13.7545 13.3639 13.3639C13.7545 12.9734 13.7545 12.3402 13.3639 11.9497L8.41422 7.00009L13.364 2.05026C13.7545 1.6597 13.7545 1.02658 13.364 0.636017Z" fill="#999999"/>
</svg>
